<?xml version="1.0" standalone="no"?>
<!DOCTYPE svg PUBLIC "-//W3C//DTD SVG 20010904//EN"
 "http://www.w3.org/TR/2001/REC-SVG-20010904/DTD/svg10.dtd">
<svg version="1.0" xmlns="http://www.w3.org/2000/svg"
 width="500.000000pt" height="500.000000pt" viewBox="0 0 500.000000 500.000000"
 preserveAspectRatio="xMidYMid meet">
<metadata>
Created by potrace 1.11, written by Peter Selinger 2001-2013
</metadata>
<g transform="translate(0.000000,500.000000) scale(0.100000,-0.100000)"
fill="#000000" stroke="none">
<path d="M2480 4993 c-8 -3 -35 -14 -60 -25 -25 -10 -54 -23 -65 -28 -11 -4
-67 -27 -125 -51 -58 -23 -123 -50 -145 -59 -39 -17 -145 -61 -725 -300 -162
-67 -308 -128 -325 -136 -16 -7 -90 -38 -164 -67 -154 -63 -131 -35 -230 -277
-35 -85 -76 -184 -91 -220 -16 -36 -76 -182 -135 -325 -59 -143 -113 -273
-120 -290 -7 -16 -77 -184 -155 -372 l-141 -342 91 -223 c51 -123 100 -241
109 -263 10 -22 37 -87 61 -145 23 -58 53 -129 66 -158 13 -29 24 -56 24 -61
0 -4 6 -21 14 -37 8 -16 85 -200 171 -409 86 -209 166 -401 177 -427 19 -44
25 -49 97 -78 42 -17 85 -35 96 -40 11 -5 196 -82 410 -170 215 -89 399 -165
410 -170 11 -5 49 -21 85 -36 36 -14 79 -32 95 -39 17 -7 98 -41 180 -74 83
-34 159 -66 170 -70 11 -5 36 -16 55 -24 19 -9 70 -29 114 -47 l78 -31 777
322 c427 177 824 341 882 365 105 44 106 45 128 96 12 28 87 209 167 402 80
193 167 403 193 466 27 63 117 280 200 481 l152 366 -44 109 c-64 158 -236
574 -252 609 -8 17 -66 158 -130 315 -112 271 -126 307 -159 382 -8 18 -40 96
-71 173 -77 187 -77 188 -122 204 -36 13 -64 24 -135 55 -18 8 -82 35 -143 59
-126 51 -465 192 -670 277 -340 143 -742 308 -760 313 -11 3 -27 3 -35 0z
m771 -691 l743 -308 308 -745 c198 -477 307 -751 303 -764 -3 -11 -142 -348
-308 -749 l-303 -730 -747 -309 -747 -310 -747 310 -747 309 -303 730 c-166
401 -305 738 -308 749 -4 13 105 287 303 764 l308 745 740 307 c406 169 744
308 750 308 7 1 346 -138 755 -307z"/>
<path d="M2452 3828 c-19 -21 -138 -255 -307 -603 -37 -77 -69 -142 -71 -144
-4 -4 -112 -22 -254 -41 -41 -5 -104 -14 -140 -20 -36 -6 -112 -17 -170 -25
-295 -42 -293 -41 -298 -100 l-4 -40 301 -295 c193 -189 301 -302 301 -314 0
-27 -20 -129 -36 -191 -21 -79 -82 -461 -90 -558 -5 -63 -3 -91 6 -102 19 -23
80 -18 130 11 24 14 85 46 135 71 49 26 151 79 225 118 74 40 174 93 223 118
48 26 92 47 97 47 5 0 83 -39 172 -86 90 -47 210 -111 268 -141 58 -31 146
-78 197 -104 100 -53 140 -60 168 -29 17 19 17 29 7 138 -12 133 -58 407 -72
437 -6 11 -14 47 -19 80 -5 33 -15 94 -21 134 l-12 75 302 295 302 296 -4 40
c-4 49 -28 63 -132 76 -39 5 -218 31 -398 57 l-327 48 -181 364 c-100 201
-191 375 -203 388 -11 12 -32 22 -47 22 -15 0 -36 -10 -48 -22z"/>
</g>
</svg>
